<?xml version="1.0" encoding="iso-8859-1"?>
<!-- Uploaded to: SVG Repo, www.svgrepo.com, Generator: SVG Repo Mixer Tools -->
<svg height="800px" width="800px" version="1.1" id="Layer_1" xmlns="http://www.w3.org/2000/svg" xmlns:xlink="http://www.w3.org/1999/xlink" 
	 viewBox="0 0 512 512" xml:space="preserve">
<path style="fill:#51951F;" d="M428.522,172.522H328.348c-4.429,0-8.674-1.761-11.804-4.892l-83.478-83.478
	c-6.521-6.516-6.521-17.092,0-23.609l50.087-50.087c6.521-6.521,17.087-6.521,23.609,0l133.565,133.565
	c4.777,4.772,6.206,11.956,3.62,18.196C441.364,168.457,435.277,172.522,428.522,172.522z"/>
<polygon style="fill:#6DC82A;" points="335.266,139.131 268.484,72.348 294.957,45.875 388.212,139.131 "/>
<path style="fill:#6FA945;" d="M328.348,172.522H61.217c-6.755,0-12.842-4.065-15.423-10.305c-2.587-6.239-1.158-13.424,3.62-18.196
	L182.979,10.456c6.521-6.521,17.087-6.521,23.609,0l133.565,133.565c4.777,4.772,6.206,11.956,3.62,18.196
	C341.19,168.457,335.103,172.522,328.348,172.522z"/>
<polygon style="fill:#91DC5A;" points="101.527,139.131 194.783,45.875 288.038,139.131 "/>
<path style="fill:#884E00;" d="M461.913,506.435H16.696C7.473,506.435,0,498.962,0,489.739V155.826
	c0-9.223,7.473-16.696,16.696-16.696h445.217c27.619,0,50.087,22.468,50.087,50.087v267.13
	C512,483.967,489.532,506.435,461.913,506.435z"/>
<path style="fill:#AA6100;" d="M395.13,506.435H16.696C7.473,506.435,0,498.962,0,489.739V155.826
	c0-9.223,7.473-16.696,16.696-16.696H395.13c27.619,0,50.087,22.468,50.087,50.087V256c0,9.223-7.473,16.696-16.696,16.696h-66.783
	c-27.619,0-50.087,22.468-50.087,50.087c0,27.619,22.468,50.087,50.087,50.087h66.783c9.223,0,16.696,7.473,16.696,16.696v66.783
	C445.217,483.967,422.749,506.435,395.13,506.435z"/>
<path style="fill:#554431;" d="M495.304,406.261H361.739c-46.032,0-83.478-37.446-83.478-83.478s37.446-83.478,83.478-83.478
	h133.565c9.223,0,16.696,7.473,16.696,16.696v133.565C512,398.788,504.527,406.261,495.304,406.261z"/>
<path style="fill:#6A563D;" d="M512,256c0-9.223-7.473-16.696-16.696-16.696H361.739c-46.032,0-83.478,37.446-83.478,83.478H512V256
	z"/>
<path style="fill:#FFDA44;" d="M311.652,322.783c0-27.619,22.468-50.087,50.087-50.087s50.087,22.468,50.087,50.087
	c0,27.619-22.468,50.087-50.087,50.087S311.652,350.402,311.652,322.783z"/>
<path style="fill:#FFA733;" d="M361.739,372.87c27.619,0,50.087-22.468,50.087-50.087H311.652
	C311.652,350.402,334.12,372.87,361.739,372.87z"/>
</svg>