<?xml version="1.0" encoding="utf-8"?>
<!-- Generator: Adobe Illustrator 18.0.0, SVG Export Plug-In . SVG Version: 6.00 Build 0)  -->
<!DOCTYPE svg PUBLIC "-//W3C//DTD SVG 1.1//EN" "http://www.w3.org/Graphics/SVG/1.1/DTD/svg11.dtd">
<svg version="1.1" id="ecommerce_1_" xmlns="http://www.w3.org/2000/svg" xmlns:xlink="http://www.w3.org/1999/xlink" x="0px"
	 y="0px" viewBox="0 0 115 115" style="enable-background:new 0 0 115 115;" xml:space="preserve">
<style type="text/css">
	.st0{fill:#FFEEAD;}
	.st1{fill:#C9B77D;}
	.st2{fill:#99734A;}
	.st3{fill:#FF6F69;}
	.st4{fill:#96CEB4;}
	.st5{fill:none;}
	.st6{fill:#AA9865;}
	.st7{fill:#71A58A;}
	.st8{fill:#FFCC5C;}
	.st9{fill:#825E3B;}
	.st10{fill:#639376;}
	.st11{fill:#E05858;}
	.st12{fill:#C1821E;}
	.st13{fill:#D6A041;}
	.st14{fill:#B28559;}
	.st15{fill:#BF4343;}
	.st16{fill:#D3C089;}
	.st17{fill:#7C5C3C;}
	.st18{fill:#FDCC5C;}
	.st19{fill:#FFFFFF;}
</style>
<g id="wallet_1_">
	<g>
		<g>
			<g>
				<path class="st4" d="M75.198,1.546c-1.037-1.581-3.16-2.022-4.741-0.985l-45.84,30.07l18.205-6.55
					c1.687-1.582,3.788-2.768,6.199-3.345c1.371-0.329,2.743-0.437,4.08-0.353l15.844-5.701c-0.007-0.01-0.016-0.016-0.023-0.026
					c-0.812-1.209-0.872-3.016,0.405-4.313l-0.588-0.875c-0.053-0.08-0.049-0.175,0.015-0.218l1.161-0.78
					c0.127-0.086,0.192,0.01,0.822,0.949c1.667-0.681,3.37-0.07,4.31,1.33c0.064,0.095,0.043,0.202-0.057,0.292l-2.105,1.576
					c-0.111,0.075-0.804-0.338-0.931-0.252c-0.143,0.096-0.121,0.266-0.046,0.378c0.165,0.245,0.584,0.348,1.266,0.417l7.801-2.807
					L75.198,1.546z"/>
			</g>
		</g>
		<g>
			<g>
				<path class="st7" d="M31.381,69.438c-0.387,0.139-0.783,0.192-1.172,0.191c1.114,1.212,2.967,1.483,4.389,0.551l6.414-4.208
					L31.381,69.438z"/>
			</g>
		</g>
		<g>
			<g>
				<path class="st7" d="M16.166,37.336c-0.124-0.343-0.172-0.693-0.185-1.039l-2.524,1.656c-1.581,1.037-2.022,3.16-0.985,4.741
					l12.452,18.983L16.166,37.336z"/>
			</g>
		</g>
		<g>
			<g>
				<path class="st0" d="M49.021,20.736c-2.41,0.577-4.512,1.763-6.199,3.345l10.279-3.698
					C51.764,20.299,50.392,20.407,49.021,20.736z"/>
			</g>
		</g>
		<g>
			<g>
				<path class="st0" d="M72.886,12.617l2.105-1.576c0.101-0.091,0.121-0.197,0.057-0.292c-0.941-1.4-2.644-2.011-4.31-1.33
					c-0.63-0.939-0.695-1.034-0.822-0.949l-1.161,0.78c-0.064,0.043-0.068,0.138-0.015,0.218l0.588,0.875
					c-1.277,1.296-1.217,3.103-0.405,4.313c0.007,0.01,0.016,0.016,0.023,0.026l4.23-1.522c-0.683-0.07-1.102-0.172-1.266-0.417
					c-0.075-0.111-0.097-0.281,0.046-0.378C72.082,12.279,72.775,12.692,72.886,12.617z"/>
			</g>
		</g>
		<g>
			<g>
				<path class="st4" d="M29.857,69.195l-4.933-7.52l2.046,5.686c0.505,1.404,1.828,2.265,3.239,2.268
					C30.084,69.494,29.961,69.355,29.857,69.195z"/>
			</g>
		</g>
		<g>
			<g>
				<path class="st7" d="M92.583,28.048L80.975,10.353l-7.801,2.807c0.379,0.039,0.818,0.071,1.393,0.105
					c1.489,0.085,2.612,0.623,3.275,1.61c1.069,1.591,0.904,3.271-0.383,4.552l0.62,0.923c0.043,0.064,0.022,0.17-0.042,0.213
					l-1.146,0.77c-0.127,0.085-0.202-0.026-0.843-0.981c-1.874,0.82-3.486,0.31-4.747-1.568c-0.053-0.08-0.038-0.159,0.031-0.228
					l1.946-1.469c0.095-0.064,0.165-0.064,0.293,0.057c0.485,0.482,0.964,0.645,1.33,0.399c0.207-0.139,0.254-0.378,0.115-0.585
					c-0.278-0.414-0.895-0.507-2.761-0.57c-1.333-0.043-2.541-0.581-3.311-1.706l-15.844,5.701
					c5.881,0.37,11.086,4.513,12.53,10.542c1.773,7.4-2.788,14.837-10.189,16.61s-14.837-2.788-16.61-10.189
					c-1.196-4.99,0.497-9.989,3.99-13.265l-18.205,6.55l-8.636,5.665c0.013,0.346,0.062,0.695,0.185,1.039l8.758,24.34l4.933,7.52
					c0.104,0.159,0.227,0.298,0.352,0.434c0.389,0.001,0.784-0.052,1.172-0.191l9.631-3.465l50.587-33.184
					C93.179,31.752,93.62,29.629,92.583,28.048z"/>
			</g>
		</g>
		<g>
			<g>
				<path class="st1" d="M65.631,30.925c-1.445-6.029-6.649-10.172-12.53-10.542l-10.279,3.698
					c-3.493,3.276-5.186,8.275-3.99,13.265c1.773,7.4,9.21,11.962,16.61,10.189S67.404,38.325,65.631,30.925z"/>
			</g>
		</g>
		<g>
			<g>
				<path class="st1" d="M77.46,19.426c1.287-1.28,1.451-2.961,0.383-4.552c-0.663-0.987-1.786-1.525-3.275-1.61
					c-0.576-0.034-1.014-0.066-1.393-0.105l-4.23,1.522c0.77,1.125,1.978,1.663,3.311,1.706c1.866,0.062,2.483,0.156,2.761,0.57
					c0.139,0.207,0.092,0.446-0.115,0.585c-0.366,0.246-0.845,0.083-1.33-0.399c-0.128-0.122-0.197-0.121-0.293-0.057l-1.946,1.469
					c-0.069,0.069-0.084,0.149-0.031,0.228c1.261,1.878,2.873,2.387,4.747,1.568c0.641,0.955,0.716,1.066,0.843,0.981l1.146-0.77
					c0.064-0.043,0.085-0.149,0.042-0.213L77.46,19.426z"/>
			</g>
		</g>
	</g>
	<g>
		<g>
			<g>
				<g>
					<path class="st4" d="M88.161,13.934c-0.644-1.791-2.619-2.721-4.41-2.076l-58.254,20.96h20.956
						c2.482-3.756,6.738-6.237,11.577-6.237s9.094,2.481,11.577,6.237h15.079c-0.035-0.094-0.06-0.159-0.103-0.273
						c-2.027,0.363-3.486-0.514-4.28-2.648c-0.034-0.091,0-0.165,0.084-0.216l2.25-0.982c0.109-0.04,0.176-0.024,0.273,0.125
						c0.362,0.586,0.793,0.858,1.209,0.703c0.235-0.087,0.337-0.311,0.25-0.546c-0.175-0.47-0.757-0.706-2.569-1.205
						c-1.307-0.358-2.373-1.176-2.858-2.478c-0.512-1.374-0.146-3.158,1.408-4.127l-0.37-0.995c-0.034-0.091-0.007-0.183,0.066-0.21
						l1.32-0.491c0.145-0.054,0.185,0.055,0.582,1.122c1.792-0.276,3.316,0.722,3.908,2.313c0.04,0.108-0.005,0.208-0.125,0.273
						L83.3,24.23c-0.127,0.047-0.708-0.519-0.853-0.465c-0.163,0.061-0.181,0.232-0.134,0.359c0.162,0.434,0.927,0.664,2.482,1.135
						c1.437,0.432,2.411,1.223,2.829,2.344c0.673,1.808,0.118,3.415-1.443,4.367l0.315,0.847h8.46L88.161,13.934z"/>
				</g>
			</g>
			<g>
				<g>
					<path class="st0" d="M58.03,26.581c-4.839,0-9.094,2.481-11.577,6.237h23.153C67.124,29.062,62.869,26.581,58.03,26.581z"/>
				</g>
			</g>
			<g>
				<g>
					<path class="st0" d="M87.624,27.604c-0.417-1.121-1.391-1.912-2.829-2.344c-1.555-0.472-2.32-0.701-2.482-1.135
						c-0.047-0.127-0.029-0.298,0.134-0.359c0.145-0.054,0.726,0.512,0.853,0.465l2.43-1.049c0.12-0.065,0.165-0.164,0.125-0.273
						c-0.592-1.592-2.117-2.589-3.908-2.313c-0.397-1.067-0.438-1.176-0.582-1.122l-1.32,0.491c-0.072,0.027-0.099,0.119-0.066,0.21
						l0.37,0.995c-1.554,0.97-1.92,2.753-1.408,4.127c0.485,1.302,1.551,2.12,2.858,2.478c1.813,0.499,2.394,0.735,2.569,1.205
						c0.088,0.235-0.015,0.459-0.25,0.546c-0.416,0.155-0.847-0.117-1.209-0.703c-0.097-0.149-0.164-0.165-0.273-0.125l-2.25,0.982
						c-0.084,0.051-0.118,0.126-0.084,0.216c0.794,2.134,2.253,3.012,4.28,2.648c0.043,0.115,0.068,0.179,0.103,0.273h1.811
						l-0.315-0.847C87.742,31.019,88.297,29.412,87.624,27.604z"/>
				</g>
			</g>
			<g>
				<g>
					<path class="st7" d="M98.965,43.96l-4.009-11.142h-8.46l0.075,0.201c0.027,0.072-0.018,0.172-0.091,0.199l-1.302,0.485
						c-0.129,0.048-0.194-0.088-0.493-0.885H69.606c1.448,2.191,2.296,4.813,2.296,7.635c0,7.661-6.211,13.872-13.872,13.872
						c-7.661,0-13.872-6.211-13.872-13.872c0-2.823,0.848-5.445,2.296-7.635H25.497l-6.326,2.276
						c-1.791,0.644-2.721,2.619-2.076,4.41l10.804,30.026c0.645,1.791,2.619,2.721,4.411,2.076l64.58-23.237
						C98.68,47.726,99.61,45.751,98.965,43.96z"/>
				</g>
			</g>
			<g>
				<g>
					<path class="st1" d="M69.606,32.818H46.453c-1.448,2.191-2.296,4.813-2.296,7.635c0,7.661,6.211,13.872,13.872,13.872
						c7.662,0,13.872-6.211,13.872-13.872C71.902,37.631,71.054,35.009,69.606,32.818z"/>
				</g>
			</g>
			<g>
				<g>
					<path class="st1" d="M86.497,32.818h-1.811c0.298,0.797,0.364,0.933,0.493,0.885l1.302-0.485
						c0.072-0.027,0.118-0.126,0.091-0.199L86.497,32.818z"/>
				</g>
			</g>
		</g>
	</g>
	<g>
		<g>
			<path class="st2" d="M94.959,35.371H17.263c-5.287,0-9.612,4.325-9.612,9.612v60.406c0,5.287,4.325,9.612,9.612,9.612h77.696
				c5.287,0,9.612-4.325,9.612-9.612V44.983C104.571,39.696,100.245,35.371,94.959,35.371z"/>
		</g>
	</g>
	<g>
		<g>
			<path class="st9" d="M102.84,67.625H79.231c-3.851,0-6.974,3.122-6.974,6.974v10.554c0,3.851,3.122,6.974,6.974,6.974h23.609
				c0.613,0,1.195-0.125,1.731-0.342V67.967C104.035,67.75,103.453,67.625,102.84,67.625z"/>
		</g>
	</g>
	<g>
		<g>
			<path class="st1" d="M102.84,64.073H79.231c-3.851,0-6.974,3.122-6.974,6.974v10.554c0,3.852,3.122,6.974,6.974,6.974h23.609
				c2.55,0,4.617-2.067,4.617-4.617V68.69C107.457,66.14,105.39,64.073,102.84,64.073z"/>
		</g>
	</g>
	<g>
		<g>
			<g>
				<path class="st1" d="M12.871,44.095h-4.44c-0.491,0-0.888,0.397-0.888,0.888c0,0.491,0.397,0.888,0.888,0.888h4.44
					c0.491,0,0.888-0.397,0.888-0.888C13.759,44.493,13.362,44.095,12.871,44.095z"/>
			</g>
		</g>
		<g>
			<g>
				<g>
					<g>
						<path class="st1" d="M32.04,44.095h-9.584c-0.491,0-0.888,0.397-0.888,0.888c0,0.491,0.397,0.888,0.888,0.888h9.584
							c0.491,0,0.888-0.397,0.888-0.888C32.928,44.493,32.531,44.095,32.04,44.095z M51.209,44.095h-9.585
							c-0.491,0-0.888,0.397-0.888,0.888c0,0.491,0.397,0.888,0.888,0.888h9.585c0.491,0,0.888-0.397,0.888-0.888
							C52.097,44.493,51.7,44.095,51.209,44.095z M89.545,44.095h-9.584c-0.491,0-0.888,0.397-0.888,0.888
							c0,0.491,0.397,0.888,0.888,0.888h9.584c0.491,0,0.888-0.397,0.888-0.888C90.433,44.493,90.036,44.095,89.545,44.095z
							 M70.377,44.095h-9.584c-0.491,0-0.888,0.397-0.888,0.888c0,0.491,0.397,0.888,0.888,0.888h9.584
							c0.491,0,0.888-0.397,0.888-0.888C71.265,44.493,70.868,44.095,70.377,44.095z"/>
					</g>
				</g>
			</g>
		</g>
		<g>
			<g>
				<path class="st1" d="M103.569,44.095h-4.44c-0.491,0-0.888,0.397-0.888,0.888c0,0.491,0.397,0.888,0.888,0.888h4.44
					c0.491,0,0.888-0.397,0.888-0.888C104.457,44.493,104.06,44.095,103.569,44.095z"/>
			</g>
		</g>
	</g>
	<g>
		<g>
			<g>
				<path class="st1" d="M12.871,104.949h-4.44c-0.491,0-0.888,0.397-0.888,0.888s0.397,0.888,0.888,0.888h4.44
					c0.491,0,0.888-0.397,0.888-0.888S13.362,104.949,12.871,104.949z"/>
			</g>
		</g>
		<g>
			<g>
				<g>
					<g>
						<path class="st1" d="M51.209,104.949h-9.585c-0.491,0-0.888,0.397-0.888,0.888s0.397,0.888,0.888,0.888h9.585
							c0.491,0,0.888-0.397,0.888-0.888S51.7,104.949,51.209,104.949z M32.04,104.949h-9.584c-0.491,0-0.888,0.397-0.888,0.888
							s0.397,0.888,0.888,0.888h9.584c0.491,0,0.888-0.397,0.888-0.888S32.531,104.949,32.04,104.949z M89.545,104.949h-9.584
							c-0.491,0-0.888,0.397-0.888,0.888s0.397,0.888,0.888,0.888h9.584c0.491,0,0.888-0.397,0.888-0.888
							S90.036,104.949,89.545,104.949z M70.377,104.949h-9.584c-0.491,0-0.888,0.397-0.888,0.888s0.397,0.888,0.888,0.888h9.584
							c0.491,0,0.888-0.397,0.888-0.888S70.868,104.949,70.377,104.949z"/>
					</g>
				</g>
			</g>
		</g>
		<g>
			<g>
				<path class="st1" d="M103.569,104.949h-4.44c-0.491,0-0.888,0.397-0.888,0.888s0.397,0.888,0.888,0.888h4.44
					c0.491,0,0.888-0.397,0.888-0.888S104.06,104.949,103.569,104.949z"/>
			</g>
		</g>
	</g>
	<g>
		<g>
			<circle class="st12" cx="83.564" cy="78.217" r="6.293"/>
		</g>
	</g>
	<g>
		<g>
			<circle class="st13" cx="83.564" cy="75.936" r="6.293"/>
		</g>
	</g>
	<g>
		<g>
			<circle class="st8" cx="85.57" cy="73.93" r="2.006"/>
		</g>
	</g>
</g>
</svg>
